<svg version="1.1" viewBox="0.0 0.0 128.0 128.0" fill="none" stroke="none" stroke-linecap="square" stroke-miterlimit="10" xmlns:xlink="http://www.w3.org/1999/xlink" xmlns="http://www.w3.org/2000/svg"><clipPath id="p.0"><path d="m0 0l128.0 0l0 128.0l-128.0 0l0 -128.0z" clip-rule="nonzero"/></clipPath><g clip-path="url(#p.0)"><path fill="#000000" fill-opacity="0.0" d="m0 0l128.0 0l0 128.0l-128.0 0z" fill-rule="evenodd"/><path fill="#a4c2f4" d="m21.10761 85.784775l0.5984268 0l0 0c5.60087 0 10.972345 2.2249374 14.932756 6.1853485c3.960415 3.9604187 6.1853523 9.331894 6.1853523 14.932762l0 21.11811c0 1.9836426E-4 -1.6021729E-4 3.5095215E-4 -3.5476685E-4 3.5095215E-4l-42.83429 -3.5095215E-4l0 0c-1.9714143E-4 0 -3.5695545E-4 -1.5258789E-4 -3.5695545E-4 -3.5095215E-4l3.5695545E-4 -21.11776l0 0c0 -11.663208 9.454901 -21.11811 21.118109 -21.11811z" fill-rule="evenodd"/><path fill="#a4c2f4" d="m63.998737 42.548557l0 0l0 0c5.6802254 0 11.127811 2.2564583 15.144337 6.2729874c4.0165253 4.0165253 6.2729874 9.4641075 6.2729874 15.144333l0 64.031494c0 1.9836426E-4 -1.6021729E-4 3.5858154E-4 -3.5858154E-4 3.5858154E-4l-42.834286 -3.5858154E-4l0 0c-1.9836426E-4 0 -3.5858154E-4 -1.6021729E-4 -3.5858154E-4 -3.5858154E-4l3.5858154E-4 -64.03114l0 0c0 -11.828461 9.58886 -21.41732 21.41732 -21.41732z" fill-rule="evenodd"/><path fill="#a4c2f4" d="m106.56732 0.015748031l0 0l0 0c5.680229 0 11.127808 2.2564614 15.144333 6.272989c4.016533 4.0165267 6.272995 9.4641075 6.272995 15.144335l0 106.58267c0 1.9836426E-4 -1.6021729E-4 3.5095215E-4 -3.5858154E-4 3.5095215E-4l-42.83429 -3.5095215E-4l0 0c-1.9836426E-4 0 -3.5858154E-4 -1.5258789E-4 -3.5858154E-4 -3.5095215E-4l3.5858154E-4 -106.58232l0 0c0 -11.828461 9.58886 -21.417322 21.41732 -21.417322z" fill-rule="evenodd"/><path fill="#4285f4" d="m16.79265 94.39032l9.228348 0l0 0c4.4564724 0 8.730417 1.7703323 11.88162 4.9215317c3.1512032 3.1511993 4.921528 7.425148 4.921528 11.881622l0 16.803146c0 1.9836426E-4 -1.6021729E-4 3.5858154E-4 -3.5476685E-4 3.5858154E-4l-42.83429 -3.5858154E-4l0 0c-1.9714143E-4 0 -3.5695545E-4 -1.6021729E-4 -3.5695545E-4 -3.5858154E-4l3.5695545E-4 -16.802788l0 0c0 -9.2801285 7.523026 -16.803154 16.803148 -16.803154z" fill-rule="evenodd"/><path fill="#4285f4" d="m63.998737 59.839867l0 0l0 0c5.6802254 0 11.127811 2.256462 15.144337 6.2729874c4.0165253 4.0165253 6.2729874 9.464111 6.2729874 15.144333l0 46.740158c0 1.9836426E-4 -1.6021729E-4 3.5858154E-4 -3.5858154E-4 3.5858154E-4l-42.834286 -3.5858154E-4l0 0c-1.9836426E-4 0 -3.5858154E-4 -1.6021729E-4 -3.5858154E-4 -3.5858154E-4l3.5858154E-4 -46.7398l0 0c0 -11.828461 9.58886 -21.41732 21.41732 -21.41732z" fill-rule="evenodd"/><path fill="#4285f4" d="m106.56732 26.233597l0 0l0 0c5.680229 0 11.127808 2.256462 15.144333 6.272991c4.016533 4.0165253 6.272995 9.464104 6.272995 15.144333l0 80.34645c0 1.9836426E-4 -1.6021729E-4 3.5858154E-4 -3.5858154E-4 3.5858154E-4l-42.83429 -3.5858154E-4l0 0c-1.9836426E-4 0 -3.5858154E-4 -1.6021729E-4 -3.5858154E-4 -3.5858154E-4l3.5858154E-4 -80.3461l0 0c0 -11.828461 9.58886 -21.417324 21.41732 -21.417324z" fill-rule="evenodd"/></g></svg>